<svg width="57" height="68" viewBox="0 0 57 68" fill="none" xmlns="http://www.w3.org/2000/svg">
<path d="M47.5274 48.4459C44.8856 48.4518 42.4415 47.0368 41.1157 44.7377L35.8689 35.5863C35.803 35.4731 35.7352 35.3599 35.6654 35.2545C33.5992 32.0693 29.4165 31.0759 26.1525 32.9925C25.792 33.2052 25.3287 33.0822 25.1175 32.7192C24.9799 32.4831 24.9798 32.1923 25.1155 31.9561L31.5796 20.6715C33.1205 17.9859 35.2215 16.5417 37.656 16.4948C40.1485 16.4402 42.6954 17.9449 44.1568 20.2675L53.9159 37.2862C55.9568 40.8422 54.7493 45.3915 51.2159 47.4486C50.0917 48.1024 48.8164 48.4479 47.5197 48.4459H47.5274ZM29.746 30.4904C32.6456 30.4806 35.3514 31.9561 36.9291 34.4055C37.0125 34.5323 37.0977 34.6709 37.1791 34.8134L42.4337 43.9668C44.058 46.7968 47.6515 47.7668 50.4619 46.1332C53.2724 44.4996 54.2357 40.8792 52.6134 38.0493L42.8698 21.0559C41.7069 19.1979 39.6543 17.9957 37.687 18.0191C35.8166 18.0562 34.1594 19.237 32.8976 21.4346L27.5364 30.7832C28.1838 30.6095 28.8486 30.5138 29.5192 30.4963L29.746 30.4924V30.4904Z" fill="#30313D"/>
<path d="M9.51887 49.0741C7.82291 49.0624 6.17153 48.5276 4.78762 47.5401C1.40151 45.1707 1.08751 40.0046 3.0684 36.9736L22.6446 3.20941C23.701 1.29675 26.1005 0.0379114 28.7598 0.000829259C31.4733 -0.0362528 33.7256 1.17184 34.9893 3.3187L42.3915 15.8329C42.6047 16.194 42.4884 16.6604 42.1279 16.8771C41.8895 17.0196 41.5929 17.0196 41.3564 16.8771L41.3099 16.8478C40.1005 16.1257 39.0557 15.4992 37.7455 15.4816H37.6777C35.2665 15.4641 33.0162 16.6917 31.7137 18.7351C31.3163 19.3635 17.3358 43.6835 16.6477 44.8877C15.2406 47.06 13.2442 48.4788 11.0016 48.9199C10.5132 49.0195 10.017 49.0702 9.51887 49.0741ZM28.8916 1.52315H28.7908C26.6917 1.55242 24.7554 2.53022 23.9704 3.95495V3.97057L4.35345 37.7758C2.39389 40.7775 3.42891 44.7296 5.65014 46.2832C7.11545 47.3449 8.94515 47.7587 10.7206 47.4288C12.5561 47.0697 14.2094 45.8831 15.3724 44.0934C15.4964 43.8748 30.1166 18.4365 30.4616 17.9076C32.0393 15.4328 34.7684 13.9456 37.6893 13.9671H37.7823C38.4549 13.9749 39.1216 14.0979 39.7535 14.334L33.6965 4.09547C32.7313 2.4541 30.983 1.51729 28.8916 1.51729V1.52315Z" fill="#30313D"/>
<path d="M10.1602 67.2249L10.1157 65.2381C9.23182 66.7682 7.53004 67.5001 5.9872 67.5001C2.76778 67.5001 0.25 65.2615 0.25 61.5845C0.25 57.9075 2.83562 55.6924 6.01046 55.6924C7.78007 55.6924 9.30547 56.4008 10.1602 57.9992L10.1835 55.9422H12.0035V67.2249H10.1602ZM2.04094 61.6509C2.04094 64.1393 3.85513 65.7845 6.0783 65.7845C11.5054 65.7845 11.5228 57.4489 6.0783 57.4723C3.86288 57.4664 2.04094 59.0024 2.04094 61.6509Z" fill="#30313D"/>
<path d="M19.5745 57.6091C20.3905 56.1472 21.7511 55.6905 23.0226 55.6905C23.9917 55.6671 24.9279 56.0809 25.6296 56.5805L24.7961 58.1789C24.236 57.7496 23.5479 57.5251 22.8443 57.5407C21.0534 57.5407 19.5493 58.864 19.5493 60.9191V67.225H17.6905V55.9638H19.4136L19.5745 57.6091Z" fill="#30313D"/>
<path d="M37.9917 67.2245L37.9006 65.4212C36.9043 66.8811 35.6503 67.4744 34.0997 67.4978C31.2427 67.4978 29.4731 65.5559 29.4731 62.2438V55.9399H31.3338V62.2438C31.3338 64.4375 32.332 65.7569 34.4854 65.7569C36.6388 65.7569 37.8424 64.0667 37.8424 61.9901V55.9399H39.7206V67.2245H37.9917Z" fill="#30313D"/>
<path d="M54.6623 67.2249L54.6177 65.2381C53.7339 66.7682 52.0321 67.5001 50.4892 67.5001C47.2679 67.5001 44.752 65.2615 44.752 61.5845C44.752 57.9075 47.3377 55.6924 50.5125 55.6924C52.2821 55.6924 53.8075 56.4008 54.6623 57.9992L54.6855 55.9422H56.4997V67.2249H54.6623ZM46.543 61.6509C46.543 64.1393 48.3572 65.7845 50.5803 65.7845C56.0074 65.7845 56.0229 57.4489 50.5803 57.4723C48.3572 57.4664 46.543 59.0024 46.543 61.6509Z" fill="#30313D"/>
</svg>
